<?xml version="1.0" encoding="UTF-8"?>
<!DOCTYPE svg PUBLIC "-//W3C//DTD SVG 1.1//EN" "http://www.w3.org/Graphics/SVG/1.1/DTD/svg11.dtd">
<svg xmlns="http://www.w3.org/2000/svg" version="1.1" width="512px" height="512px" style="shape-rendering:geometricPrecision; text-rendering:geometricPrecision; image-rendering:optimizeQuality; fill-rule:evenodd; clip-rule:evenodd" xmlns:xlink="http://www.w3.org/1999/xlink">
<g><path style="opacity:0.995" fill="#fe7069" d="M 233.5,-0.5 C 248.167,-0.5 262.833,-0.5 277.5,-0.5C 362.222,8.92981 427.722,49.2631 474,120.5C 478.829,128.161 482.996,136.161 486.5,144.5C 475.031,146.095 463.364,147.095 451.5,147.5C 451.724,151.179 452.058,154.846 452.5,158.5C 446.158,158.334 439.825,158.5 433.5,159C 431.679,161.456 431.012,164.289 431.5,167.5C 431.5,169.167 431.5,170.833 431.5,172.5C 428.206,172.741 425.206,171.908 422.5,170C 396.97,153.953 370.637,139.453 343.5,126.5C 317.345,127.482 291.345,129.982 265.5,134C 253.457,141.528 242.791,150.695 233.5,161.5C 205.31,160.168 186.81,172.835 178,199.5C 174.54,231.017 188.04,250.851 218.5,259C 244.168,260.847 261.835,250.014 271.5,226.5C 282.494,227.043 293.494,227.543 304.5,228C 321.411,233.729 338.745,237.229 356.5,238.5C 376.343,237.395 396.01,234.895 415.5,231C 422.158,230.5 428.825,230.334 435.5,230.5C 436.491,237.313 436.825,244.313 436.5,251.5C 441.833,251.5 447.167,251.5 452.5,251.5C 454.167,251.5 455.833,251.5 457.5,251.5C 457.263,252.791 457.596,253.791 458.5,254.5C 458.5,256.5 458.5,258.5 458.5,260.5C 476.171,260.36 493.838,260.027 511.5,259.5C 511.5,265.5 511.5,271.5 511.5,277.5C 499.018,377.805 447.018,449.305 355.5,492C 330.313,502.297 304.313,508.797 277.5,511.5C 262.833,511.5 248.167,511.5 233.5,511.5C 160.157,504.002 100.491,471.668 54.5,414.5C 71.7614,411.129 89.0947,408.129 106.5,405.5C 106.5,404.167 106.5,402.833 106.5,401.5C 112.862,401.031 119.195,400.364 125.5,399.5C 124.141,392.217 123.141,384.884 122.5,377.5C 129.229,376.322 135.896,374.822 142.5,373C 145.833,372.333 149.167,372.333 152.5,373C 182.61,378.489 212.61,384.489 242.5,391C 249.792,392.353 257.125,392.686 264.5,392C 299.292,380.125 333.959,367.959 368.5,355.5C 372.845,354.163 377.178,352.829 381.5,351.5C 381.5,350.167 381.5,348.833 381.5,347.5C 382.793,339.43 379.126,335.097 370.5,334.5C 365.193,335.827 359.86,337.16 354.5,338.5C 353.833,338.167 353.167,337.833 352.5,337.5C 355.929,328.088 352.596,323.588 342.5,324C 336.938,326.941 331.605,330.108 326.5,333.5C 323.59,330.049 319.923,328.882 315.5,330C 308.77,333.357 302.437,337.19 296.5,341.5C 282.967,337.856 269.3,337.523 255.5,340.5C 248.529,338.899 241.529,337.399 234.5,336C 228.921,329.417 222.921,323.084 216.5,317C 206.558,309.184 195.224,305.018 182.5,304.5C 159.109,305.082 135.776,306.415 112.5,308.5C 112.662,306.473 112.495,304.473 112,302.5C 111.612,301.572 110.945,300.905 110,300.5C 104.264,301.99 98.4307,302.657 92.5,302.5C 90.2568,301.188 87.5902,300.522 84.5,300.5C 57.8341,302.574 31.1675,304.574 4.5,306.5C 2.26166,296.924 0.594993,287.257 -0.5,277.5C -0.5,262.833 -0.5,248.167 -0.5,233.5C 11.9821,133.195 63.9821,61.6947 155.5,19C 180.687,8.70332 206.687,2.20332 233.5,-0.5 Z"/></g>
<g><path style="opacity:1" fill="#ffd08f" d="M 431.5,167.5 C 433.032,188.338 434.365,209.338 435.5,230.5C 428.825,230.334 422.158,230.5 415.5,231C 396.01,234.895 376.343,237.395 356.5,238.5C 338.745,237.229 321.411,233.729 304.5,228C 293.494,227.543 282.494,227.043 271.5,226.5C 267.733,225.903 264.066,224.903 260.5,223.5C 263.5,223.5 266.5,223.5 269.5,223.5C 269.5,220.167 269.5,216.833 269.5,213.5C 263.824,213.334 258.157,213.501 252.5,214C 251.956,214.717 251.289,215.217 250.5,215.5C 249.401,208.976 251.734,204.309 257.5,201.5C 258.791,201.737 259.791,201.404 260.5,200.5C 263.86,200.384 267.193,200.051 270.5,199.5C 271.833,199.5 272.5,198.833 272.5,197.5C 273.261,198.391 274.261,199.058 275.5,199.5C 283.49,198.642 291.49,197.808 299.5,197C 304.882,195.476 309.882,193.142 314.5,190C 315.517,188.951 315.684,187.784 315,186.5C 311.292,180.249 307.459,174.083 303.5,168C 292.835,166.35 282.168,164.85 271.5,163.5C 266.457,166.543 262.457,170.543 259.5,175.5C 251.977,168.628 243.31,163.962 233.5,161.5C 242.791,150.695 253.457,141.528 265.5,134C 291.345,129.982 317.345,127.482 343.5,126.5C 370.637,139.453 396.97,153.953 422.5,170C 425.206,171.908 428.206,172.741 431.5,172.5C 431.5,170.833 431.5,169.167 431.5,167.5 Z"/></g>
<g><path style="opacity:1" fill="#6d7f9d" d="M 486.5,144.5 C 500.287,172.648 508.62,202.314 511.5,233.5C 511.5,242.167 511.5,250.833 511.5,259.5C 493.838,260.027 476.171,260.36 458.5,260.5C 458.5,258.5 458.5,256.5 458.5,254.5C 458.768,252.901 458.434,251.568 457.5,250.5C 456.35,219.805 454.684,189.138 452.5,158.5C 452.058,154.846 451.724,151.179 451.5,147.5C 463.364,147.095 475.031,146.095 486.5,144.5 Z"/></g>
<g><path style="opacity:1" fill="#fdfcfc" d="M 452.5,158.5 C 454.684,189.138 456.35,219.805 457.5,250.5C 455.585,250.216 453.919,250.549 452.5,251.5C 447.167,251.5 441.833,251.5 436.5,251.5C 436.825,244.313 436.491,237.313 435.5,230.5C 434.365,209.338 433.032,188.338 431.5,167.5C 431.012,164.289 431.679,161.456 433.5,159C 439.825,158.5 446.158,158.334 452.5,158.5 Z"/></g>
<g><path style="opacity:1" fill="#fedb57" d="M 233.5,161.5 C 243.31,163.962 251.977,168.628 259.5,175.5C 266.291,181.311 270.624,188.644 272.5,197.5C 272.5,198.833 271.833,199.5 270.5,199.5C 263.836,176.509 248.502,164.842 224.5,164.5C 200.875,166.085 186.042,178.418 180,201.5C 177.194,227.736 188.028,245.57 212.5,255C 232.722,259.703 249.556,254.203 263,238.5C 265.656,234.856 267.489,230.856 268.5,226.5C 269.5,226.5 270.5,226.5 271.5,226.5C 261.835,250.014 244.168,260.847 218.5,259C 188.04,250.851 174.54,231.017 178,199.5C 186.81,172.835 205.31,160.168 233.5,161.5 Z"/></g>
<g><path style="opacity:1" fill="#fcd34e" d="M 270.5,199.5 C 267.193,200.051 263.86,200.384 260.5,200.5C 252.989,180.737 238.656,172.237 217.5,175C 193.788,183.589 185.288,200.089 192,224.5C 204.614,246.48 222.447,251.98 245.5,241C 252.205,236.735 256.872,230.901 259.5,223.5C 259.833,223.5 260.167,223.5 260.5,223.5C 264.066,224.903 267.733,225.903 271.5,226.5C 270.5,226.5 269.5,226.5 268.5,226.5C 267.489,230.856 265.656,234.856 263,238.5C 249.556,254.203 232.722,259.703 212.5,255C 188.028,245.57 177.194,227.736 180,201.5C 186.042,178.418 200.875,166.085 224.5,164.5C 248.502,164.842 263.836,176.509 270.5,199.5 Z"/></g>
<g><path style="opacity:1" fill="#ff7069" d="M 272.5,197.5 C 270.624,188.644 266.291,181.311 259.5,175.5C 262.457,170.543 266.457,166.543 271.5,163.5C 282.168,164.85 292.835,166.35 303.5,168C 307.459,174.083 311.292,180.249 315,186.5C 315.684,187.784 315.517,188.951 314.5,190C 309.882,193.142 304.882,195.476 299.5,197C 291.49,197.808 283.49,198.642 275.5,199.5C 274.261,199.058 273.261,198.391 272.5,197.5 Z"/></g>
<g><path style="opacity:1" fill="#fee255" d="M 260.5,200.5 C 259.791,201.404 258.791,201.737 257.5,201.5C 246.555,179.684 229.888,173.85 207.5,184C 194.395,194.916 190.895,208.416 197,224.5C 206.552,240.254 220.052,245.421 237.5,240C 245.421,236.727 251.087,231.227 254.5,223.5C 256.167,223.5 257.833,223.5 259.5,223.5C 256.872,230.901 252.205,236.735 245.5,241C 222.447,251.98 204.614,246.48 192,224.5C 185.288,200.089 193.788,183.589 217.5,175C 238.656,172.237 252.989,180.737 260.5,200.5 Z"/></g>
<g><path style="opacity:1" fill="#fcd34e" d="M 257.5,201.5 C 251.734,204.309 249.401,208.976 250.5,215.5C 249.774,219.307 251.107,221.974 254.5,223.5C 251.087,231.227 245.421,236.727 237.5,240C 220.052,245.421 206.552,240.254 197,224.5C 190.895,208.416 194.395,194.916 207.5,184C 229.888,173.85 246.555,179.684 257.5,201.5 Z"/></g>
<g><path style="opacity:1" fill="#fee255" d="M 223.5,188.5 C 225.167,188.5 226.833,188.5 228.5,188.5C 228.5,190.167 228.5,191.833 228.5,193.5C 231.4,193.28 234.067,193.946 236.5,195.5C 235.691,197.071 235.357,198.738 235.5,200.5C 231.537,199.56 227.537,199.393 223.5,200C 222.14,201.938 222.473,203.604 224.5,205C 229.361,206.393 233.528,208.893 237,212.5C 239.233,220.405 236.399,225.072 228.5,226.5C 228.5,228.5 228.5,230.5 228.5,232.5C 226.5,232.5 224.5,232.5 222.5,232.5C 222.5,230.833 222.5,229.167 222.5,227.5C 215.809,228.238 213.143,225.571 214.5,219.5C 217.885,219.846 221.218,220.512 224.5,221.5C 229.52,220.911 230.52,218.744 227.5,215C 222.639,213.607 218.472,211.107 215,207.5C 213.026,199.766 215.859,195.099 223.5,193.5C 223.5,191.833 223.5,190.167 223.5,188.5 Z"/></g>
<g><path style="opacity:1" fill="#fffdfa" d="M 260.5,223.5 C 260.167,223.5 259.833,223.5 259.5,223.5C 257.833,223.5 256.167,223.5 254.5,223.5C 251.107,221.974 249.774,219.307 250.5,215.5C 251.289,215.217 251.956,214.717 252.5,214C 258.157,213.501 263.824,213.334 269.5,213.5C 269.5,216.833 269.5,220.167 269.5,223.5C 266.5,223.5 263.5,223.5 260.5,223.5 Z"/></g>
<g><path style="opacity:1" fill="#8395af" d="M 471.5,239.5 C 482.262,238.739 484.929,242.905 479.5,252C 473.47,254.484 469.803,252.484 468.5,246C 468.84,243.489 469.84,241.322 471.5,239.5 Z"/></g>
<g><path style="opacity:1" fill="#e38e8f" d="M 452.5,251.5 C 453.919,250.549 455.585,250.216 457.5,250.5C 458.434,251.568 458.768,252.901 458.5,254.5C 457.596,253.791 457.263,252.791 457.5,251.5C 455.833,251.5 454.167,251.5 452.5,251.5 Z"/></g>
<g><path style="opacity:1" fill="#6d7f9d" d="M 92.5,302.5 C 96.7718,335.692 101.438,368.692 106.5,401.5C 106.5,402.833 106.5,404.167 106.5,405.5C 89.0947,408.129 71.7614,411.129 54.5,414.5C 28.829,382.889 12.1624,346.889 4.5,306.5C 31.1675,304.574 57.8341,302.574 84.5,300.5C 87.5902,300.522 90.2568,301.188 92.5,302.5 Z"/></g>
<g><path style="opacity:1" fill="#fefcfc" d="M 112.5,308.5 C 115.827,331.455 119.16,354.455 122.5,377.5C 123.141,384.884 124.141,392.217 125.5,399.5C 119.195,400.364 112.862,401.031 106.5,401.5C 101.438,368.692 96.7718,335.692 92.5,302.5C 98.4307,302.657 104.264,301.99 110,300.5C 110.945,300.905 111.612,301.572 112,302.5C 112.495,304.473 112.662,306.473 112.5,308.5 Z"/></g>
<g><path style="opacity:1" fill="#fed08f" d="M 296.5,341.5 C 298.771,343.266 300.937,345.266 303,347.5C 310.846,342.668 318.68,338.001 326.5,333.5C 331.605,330.108 336.938,326.941 342.5,324C 352.596,323.588 355.929,328.088 352.5,337.5C 353.167,337.833 353.833,338.167 354.5,338.5C 359.86,337.16 365.193,335.827 370.5,334.5C 379.126,335.097 382.793,339.43 381.5,347.5C 376.201,347.119 371.201,348.119 366.5,350.5C 367.95,351.85 368.617,353.516 368.5,355.5C 333.959,367.959 299.292,380.125 264.5,392C 257.125,392.686 249.792,392.353 242.5,391C 212.61,384.489 182.61,378.489 152.5,373C 149.167,372.333 145.833,372.333 142.5,373C 135.896,374.822 129.229,376.322 122.5,377.5C 119.16,354.455 115.827,331.455 112.5,308.5C 135.776,306.415 159.109,305.082 182.5,304.5C 195.224,305.018 206.558,309.184 216.5,317C 222.921,323.084 228.921,329.417 234.5,336C 241.529,337.399 248.529,338.899 255.5,340.5C 269.3,337.523 282.967,337.856 296.5,341.5 Z"/></g>
<g><path style="opacity:1" fill="#fec781" d="M 326.5,333.5 C 318.68,338.001 310.846,342.668 303,347.5C 300.937,345.266 298.771,343.266 296.5,341.5C 302.437,337.19 308.77,333.357 315.5,330C 319.923,328.882 323.59,330.049 326.5,333.5 Z"/></g>
<g><path style="opacity:1" fill="#fffdfc" d="M 301.5,355.5 C 301.167,355.5 300.833,355.5 300.5,355.5C 295.216,356.714 289.882,357.714 284.5,358.5C 284.041,355.123 283.374,351.789 282.5,348.5C 287.796,347.491 293.129,347.324 298.5,348C 301.039,349.805 302.039,352.305 301.5,355.5 Z"/></g>
<g><path style="opacity:1" fill="#ffeedb" d="M 381.5,347.5 C 381.5,348.833 381.5,350.167 381.5,351.5C 377.178,352.829 372.845,354.163 368.5,355.5C 368.617,353.516 367.95,351.85 366.5,350.5C 371.201,348.119 376.201,347.119 381.5,347.5 Z"/></g>
<g><path style="opacity:1" fill="#f1bc7f" d="M 300.5,355.5 C 300.833,355.5 301.167,355.5 301.5,355.5C 302.966,354.653 303.8,353.32 304,351.5C 305.578,352.711 305.745,354.045 304.5,355.5C 300.746,357.81 296.746,359.643 292.5,361C 276.869,364.324 261.203,367.491 245.5,370.5C 226.464,367.939 207.797,363.772 189.5,358C 208.525,361.71 227.692,364.877 247,367.5C 265.187,364.504 283.02,360.504 300.5,355.5 Z"/></g>
<g><path style="opacity:1" fill="#8395b0" d="M 88.5,384.5 C 95.1424,384.64 97.9758,387.973 97,394.5C 94.4425,398.212 90.9425,399.378 86.5,398C 82.0338,392.636 82.7005,388.136 88.5,384.5 Z"/></g>
</svg>
